<svg xmlns="http://www.w3.org/2000/svg" width="133" height="40" fill="none"><g fill="#FF6333" clip-path="url(#a)"><path d="M23.866 4a7.738 7.738 0 0 1-7.74 7.74A7.738 7.738 0 0 1 8.387 4H0c0 8.905 7.221 16.127 16.127 16.127 8.905 0 16.126-7.222 16.126-16.127h-8.387Z"/><path d="M23.866 36a7.738 7.738 0 0 0-7.74-7.74A7.738 7.738 0 0 0 8.387 36H0c0-8.905 7.221-16.127 16.127-16.127 8.905 0 16.126 7.222 16.126 16.127h-8.387Z"/></g><path fill="#fff" d="M55.68 29.5V9.9h3.249v19.6H55.68Zm-13.103 0V9.9h3.248v19.6h-3.248Zm2.548-8.568v-2.968h11.872v2.968H45.125Zm23.608 8.904c-1.363 0-2.576-.308-3.64-.924a6.962 6.962 0 0 1-2.492-2.604c-.597-1.101-.896-2.37-.896-3.808 0-1.437.308-2.707.924-3.808a6.686 6.686 0 0 1 2.52-2.576c1.083-.635 2.315-.952 3.696-.952 1.25 0 2.38.327 3.388.98 1.008.635 1.801 1.559 2.38 2.772.597 1.213.896 2.66.896 4.34H64.505l.42-.392c0 .859.187 1.605.56 2.24a3.89 3.89 0 0 0 1.484 1.428 4.198 4.198 0 0 0 2.044.504c.859 0 1.568-.187 2.128-.56.56-.392.999-.896 1.316-1.512l2.772 1.176a7.064 7.064 0 0 1-1.512 1.96 6.09 6.09 0 0 1-2.156 1.288c-.821.299-1.764.448-2.828.448ZM65.12 21.24l-.448-.392h7.896l-.42.392c0-.765-.168-1.39-.504-1.876a3.097 3.097 0 0 0-1.288-1.12 3.42 3.42 0 0 0-1.596-.392c-.56 0-1.12.13-1.68.392a3.402 3.402 0 0 0-1.4 1.12c-.373.485-.56 1.11-.56 1.876Zm20.83 8.26-.14-2.632v-4.564c0-.952-.103-1.745-.308-2.38-.187-.653-.504-1.148-.952-1.484-.43-.355-1.008-.532-1.736-.532-.672 0-1.26.14-1.764.42-.504.28-.933.719-1.288 1.316l-2.744-1.008a6.976 6.976 0 0 1 1.176-1.708 5.417 5.417 0 0 1 1.876-1.288c.765-.317 1.68-.476 2.744-.476 1.362 0 2.501.27 3.416.812a4.688 4.688 0 0 1 2.016 2.268c.448.99.672 2.184.672 3.584l-.084 7.672H85.95Zm-4.032.336c-1.68 0-2.987-.373-3.92-1.12-.915-.747-1.372-1.801-1.372-3.164 0-1.456.485-2.567 1.456-3.332.99-.765 2.361-1.148 4.116-1.148h3.752v2.408h-2.744c-1.25 0-2.128.177-2.632.532-.504.336-.756.821-.756 1.456 0 .541.215.97.644 1.288.448.299 1.064.448 1.848.448.71 0 1.325-.159 1.848-.476a3.25 3.25 0 0 0 1.204-1.26c.299-.523.448-1.11.448-1.764h.924c0 1.904-.383 3.407-1.148 4.508-.766 1.083-1.988 1.624-3.668 1.624Zm15.247 0c-1.474 0-2.604-.364-3.388-1.092-.765-.747-1.148-1.81-1.148-3.192v-14.42h3.108v13.832c0 .653.15 1.148.448 1.484.318.336.775.504 1.372.504.187 0 .392-.037.616-.112.224-.075.476-.215.756-.42l1.148 2.38a6.02 6.02 0 0 1-1.456.756 4.03 4.03 0 0 1-1.456.28Zm-6.86-11.648V15.5h9.212v2.688h-9.212ZM103.487 29.5V14.016c0-1.475.364-2.604 1.092-3.388.746-.803 1.866-1.204 3.36-1.204.485 0 .998.084 1.54.252.56.15 1.092.355 1.596.616l-1.148 2.324a5.715 5.715 0 0 0-.952-.364 2.586 2.586 0 0 0-.7-.112c-.56 0-.98.187-1.26.56-.262.355-.392.943-.392 1.764V29.5h-3.136Zm-2.408-11.424V15.5h9.212v2.576h-9.212Zm11.45 11.424v-14h3.108v14h-3.108Zm1.568-16.66c-.504 0-.943-.177-1.316-.532a1.847 1.847 0 0 1-.532-1.316c0-.504.177-.933.532-1.288a1.848 1.848 0 0 1 1.316-.532c.504 0 .933.177 1.288.532.373.355.56.784.56 1.288s-.187.943-.56 1.316a1.755 1.755 0 0 1-1.288.532Zm3.28 16.66 5.74-8.008 4.004-5.992h3.696l-5.46 7.728-4.228 6.272h-3.752Zm10.052 0-4.144-6.272-5.544-7.728h3.696l4.032 5.992 5.684 8.008h-3.724Z"/><defs><clipPath id="a"><path fill="#fff" d="M0 4h32.253v32H0z"/></clipPath></defs></svg>